<mxfile host="Electron" modified="2023-09-17T00:46:32.175Z" agent="Mozilla/5.0 (Windows NT 10.0; Win64; x64) AppleWebKit/537.36 (KHTML, like Gecko) draw.io/21.7.5 Chrome/114.0.5735.289 Electron/25.8.1 Safari/537.36" etag="DRJIWY4Fcevk-VBHT022" version="21.7.5" type="device">
  <diagram name="페이지-1" id="j8jdjy-5pEw3k468X--j">
    <mxGraphModel dx="2261" dy="2013" grid="1" gridSize="10" guides="1" tooltips="1" connect="1" arrows="1" fold="1" page="1" pageScale="1" pageWidth="827" pageHeight="1169" math="0" shadow="0">
      <root>
        <mxCell id="0" />
        <mxCell id="1" parent="0" />
        <mxCell id="vVRq3RwxEJTVXukWDLhj-1" value="SkillBox" style="rounded=1;whiteSpace=wrap;html=1;" parent="1" vertex="1">
          <mxGeometry x="338" y="110" width="120" height="60" as="geometry" />
        </mxCell>
        <mxCell id="vVRq3RwxEJTVXukWDLhj-2" value="스킬 레벨을 올렸을 때" style="rounded=1;whiteSpace=wrap;html=1;" parent="1" vertex="1">
          <mxGeometry x="130" y="330" width="156" height="60" as="geometry" />
        </mxCell>
        <mxCell id="vVRq3RwxEJTVXukWDLhj-3" value="스킬 아이콘을 클릭했을 때" style="rounded=1;whiteSpace=wrap;html=1;" parent="1" vertex="1">
          <mxGeometry x="320" y="330" width="156" height="60" as="geometry" />
        </mxCell>
        <mxCell id="vVRq3RwxEJTVXukWDLhj-4" value="스킬 아이콘을 퀵슬롯에 드랍했을 때" style="rounded=1;whiteSpace=wrap;html=1;" parent="1" vertex="1">
          <mxGeometry x="320" y="420" width="156" height="60" as="geometry" />
        </mxCell>
        <mxCell id="vVRq3RwxEJTVXukWDLhj-5" value="스킬 아이콘을 더블클릭했을 때(Description != null)일 때" style="rounded=1;whiteSpace=wrap;html=1;" parent="1" vertex="1">
          <mxGeometry x="610" y="300" width="156" height="60" as="geometry" />
        </mxCell>
        <mxCell id="vVRq3RwxEJTVXukWDLhj-6" value="퀵슬롯에 등록된 스킬키를 눌렀을 때" style="rounded=1;whiteSpace=wrap;html=1;" parent="1" vertex="1">
          <mxGeometry x="610" y="360" width="156" height="60" as="geometry" />
        </mxCell>
        <mxCell id="vVRq3RwxEJTVXukWDLhj-7" value="SkillData" style="rounded=1;whiteSpace=wrap;html=1;" parent="1" vertex="1">
          <mxGeometry x="330" y="600" width="120" height="60" as="geometry" />
        </mxCell>
        <mxCell id="vVRq3RwxEJTVXukWDLhj-8" value="SkillName,&lt;br&gt;SkillLevel,&lt;br&gt;SkillAnim,&lt;br&gt;Sound,&lt;br&gt;AttackRange,&lt;br&gt;레벨업 포스 요구량&lt;br&gt;사용시 필요 스테미너" style="rounded=1;whiteSpace=wrap;html=1;" parent="1" vertex="1">
          <mxGeometry x="278" y="660" width="240" height="170" as="geometry" />
        </mxCell>
        <mxCell id="vVRq3RwxEJTVXukWDLhj-9" value="Skill_Description" style="rounded=1;whiteSpace=wrap;html=1;" parent="1" vertex="1">
          <mxGeometry x="-70" y="420" width="120" height="60" as="geometry" />
        </mxCell>
        <mxCell id="vVRq3RwxEJTVXukWDLhj-10" value="Skill_Slot" style="rounded=1;whiteSpace=wrap;html=1;" parent="1" vertex="1">
          <mxGeometry x="338" y="190" width="120" height="60" as="geometry" />
        </mxCell>
        <mxCell id="64Uu2IGOEDXsRe1cQ7Ej-1" value="Skill_Description" style="rounded=1;whiteSpace=wrap;html=1;" parent="1" vertex="1">
          <mxGeometry x="-130" y="480" width="240" height="160" as="geometry" />
        </mxCell>
        <mxCell id="lLy5Xt37oyCrMtAwBrTJ-1" value="skill 01&lt;br&gt;&lt;div&gt;&amp;nbsp;Sniping,&lt;/div&gt;&lt;div&gt;하나의 적에게 강력한 피해를 준다.&lt;/div&gt;&lt;div&gt;1lv = 200% + 20%&lt;/div&gt;&lt;div&gt;공격범위 1(1타일)&lt;/div&gt;&lt;div&gt;stamina 소모량 = 5lv당 1 증가&lt;/div&gt;&lt;div&gt;@&lt;/div&gt;&lt;div&gt;&lt;br&gt;&lt;/div&gt;&lt;div&gt;&lt;br&gt;&lt;/div&gt;&lt;div&gt;skill02&lt;/div&gt;&lt;div&gt;&amp;nbsp; &amp;nbsp; Penetrate,&lt;/div&gt;&lt;div&gt;수직선상에 있는 적들에게 관통 피해를 준다.&lt;/div&gt;&lt;div&gt;1lv 80% + 5%&lt;/div&gt;&lt;div&gt;공격범위 선택한 타일 포함 4개 타일&lt;/div&gt;&lt;div&gt;@&lt;/div&gt;&lt;div&gt;@&lt;/div&gt;&lt;div&gt;@&lt;/div&gt;&lt;div&gt;@&lt;/div&gt;&lt;div&gt;&lt;br&gt;&lt;/div&gt;&lt;div&gt;skill03&lt;/div&gt;&lt;div&gt;&amp;nbsp; &amp;nbsp; rampage,&lt;/div&gt;&lt;div&gt;넓은 범위 다수의 적에게 총을 난사한다.&lt;/div&gt;&lt;div&gt;1lv 70% + 3%&lt;/div&gt;&lt;div&gt;공격범위 8칸&amp;nbsp;&lt;/div&gt;&lt;div&gt;@@@&lt;/div&gt;&lt;div&gt;@@@@@&lt;/div&gt;&lt;div&gt;&lt;br&gt;&lt;/div&gt;&lt;div&gt;&lt;br&gt;&lt;/div&gt;&lt;div&gt;&amp;nbsp; &amp;nbsp; Blessing,&lt;/div&gt;&lt;div&gt;&amp;nbsp; &amp;nbsp; Normal&lt;/div&gt;&lt;div&gt;&lt;br&gt;&lt;/div&gt;&lt;div&gt;&lt;br&gt;&lt;/div&gt;" style="rounded=1;whiteSpace=wrap;html=1;" parent="1" vertex="1">
          <mxGeometry x="850" y="280" width="580" height="500" as="geometry" />
        </mxCell>
        <mxCell id="n1IyFt9puTwrzS4PIKZz-1" value="Buff_Skill Player능력치 바꾸기&lt;br&gt;&lt;br&gt;버프가 발동될 때&amp;nbsp;&lt;br&gt;Player능력치 = base 능력치 + 장비중인 아이템 능력치 * skillPower&lt;br&gt;&lt;br&gt;버프가 해제될 때&lt;br&gt;Player능력치 =&amp;nbsp;&amp;nbsp;base 능력치 + 장비중인 아이템 능력치 ;&lt;br&gt;&lt;br&gt;&lt;br&gt;버프 발동 중 장비를 해제했을 때&amp;nbsp;&lt;br&gt;장비 해제시 버프중이면 Player능력치 =&amp;nbsp;&lt;br&gt;&amp;nbsp;base능력치 + 장비중인 아이템 능력치 * skillPower&lt;br&gt;&lt;br&gt;버프 발동중 장비를 장착했을 때&lt;br&gt;장착시 버프중이면&amp;nbsp;&lt;br&gt;Player능력치 =&amp;nbsp; base능력치 + 장비중인 아이템 능력치 * skillPower&lt;br&gt;&lt;br&gt;@@중요한 점 Base능력치와 실제 사용될&amp;nbsp; 능력치는 각각 따로 존재해야한다.&lt;br&gt;그렇지 않으면 기준이 될 능력치가 수시로 바뀌기 때문에 값을 바꿀 타이밍을 잡기가 어려워진다." style="rounded=1;whiteSpace=wrap;html=1;" parent="1" vertex="1">
          <mxGeometry x="910" y="-50" width="500" height="310" as="geometry" />
        </mxCell>
        <mxCell id="SYQOvFo16PBhs8ZywdMb-1" value="Skill 을 퀵슬롯으로 할당하기&lt;br&gt;&lt;br&gt;스킬 아이콘을&amp;nbsp; 그래그 시작했을 때&lt;br&gt;SkillTempSlot 스킬데이터 셋팅 및 활성화&lt;br&gt;&lt;br&gt;퀵슬롯에 할당 했을 때&amp;nbsp;&lt;br&gt;SkillTempSlot .SkillData가 null이 아니면&lt;br&gt;기존의 데이터를 null로 설정 후&amp;nbsp;&lt;br&gt;퀵슬롯에 SkillData 셋팅 =&amp;gt; Delegate 바인딩" style="rounded=1;whiteSpace=wrap;html=1;" vertex="1" parent="1">
          <mxGeometry x="1471" y="-50" width="500" height="310" as="geometry" />
        </mxCell>
      </root>
    </mxGraphModel>
  </diagram>
</mxfile>
